<svg xmlns="http://www.w3.org/2000/svg" width="120" height="120" viewBox="0 0 120 120"><rect width="120" height="120" fill="none"></rect><polygon points="-40,-60 20,-60 0,0 -60,0" fill="#CCCB3F"></polygon><polygon points="80,-60 140,-60 120,0 60,0" fill="#CCCB3F"></polygon><polygon points="20,0 80,0 60,60 0,60" fill="#CCCB3F"></polygon><polygon points="140,0 200,0 180,60 120,60" fill="#CCCB3F"></polygon><polygon points="-40,60 20,60 0,120 -60,120" fill="#CCCB3F"></polygon><polygon points="80,60 140,60 120,120 60,120" fill="#CCCB3F"></polygon><polygon points="20,120 80,120 60,180 0,180" fill="#CCCB3F"></polygon><polygon points="140,120 200,120 180,180 120,180" fill="#CCCB3F"></polygon></svg>